# xmcd
#
# Track frame offsets: 
#        150
#        9670
#        33455
#        52705
#        71332
#        89062
#        107240
#        125810
#        141160
#        157455
#        171505
#
# Disc length: 2636 seconds
#
# Revision: 1
# Processed by: cddbd v1.5.2PL0 Copyright (c) Steve Scherf et al.
# Submitted via: ExactAudioCopyFreeDBPlugin 1.0
#
DISCID=a20a4a0b
DTITLE=スーザン・オズボーン - ザ・パール THE PEARL
DYEAR=1996
DGENRE=Pop
TTITLE0=さくらさくら Sakura Sakura
TTITLE1=月の沙漠 Desert Moon
TTITLE2=知床旅情 The Island(英語カバー)
TTITLE3=七つの子 Crow
TTITLE4=砂山 Sand Mountain(英語カバー)
TTITLE5=花 Hana(英語カバー)
TTITLE6=宵待草 Evening Primrose
TTITLE7=春が来た Spring
TTITLE8=五木の子守唄 Itsuki Lullabye
TTITLE9=黒田節 Samurai Song
TTITLE10=仰げば尊し Graduation(エンディング・テーマ)
EXTD=YEAR: 1996
EXTT0=
EXTT1=
EXTT2=
EXTT3=
EXTT4=
EXTT5=
EXTT6=
EXTT7=
EXTT8=
EXTT9=
EXTT10=
PLAYORDER=
